<svg
    width="17"
    height="17"
    viewBox="0 0 17 17"
    fill="none"
    xmlns="http://www.w3.org/2000/svg"
>
    <path
        d="M1.7207 9.69727H6.89648V14.873C6.89648 15.625 7.51172 16.2402 8.26367 16.2402C9.01562 16.2402 9.63086 15.625 9.63086 14.873V9.69727H14.8066C15.5586 9.69727 16.1738 9.0918 16.1738 8.33008C16.1738 7.57812 15.5586 6.97266 14.8066 6.97266H9.63086V1.79688C9.63086 1.04492 9.01562 0.429688 8.26367 0.429688C7.51172 0.429688 6.89648 1.04492 6.89648 1.79688V6.97266H1.7207C0.96875 6.97266 0.353516 7.57812 0.353516 8.33008C0.353516 9.0918 0.96875 9.69727 1.7207 9.69727Z"
        fill="#07B284"
    />
</svg>