<svg width="12" height="10" viewBox="0 0 12 10" fill="none" xmlns="http://www.w3.org/2000/svg">
<path d="M5.00082 9.99219C5.4227 9.99219 5.75082 9.83398 5.97348 9.5L11.1122 1.71289C11.2704 1.47266 11.3407 1.23828 11.3407 1.02734C11.3407 0.441406 10.8895 0.0078125 10.286 0.0078125C9.88168 0.0078125 9.61801 0.154297 9.37192 0.546875L4.97739 7.45508L2.76254 4.76562C2.53989 4.50195 2.28793 4.37891 1.94223 4.37891C1.33871 4.37891 0.893402 4.8125 0.893402 5.4043C0.893402 5.66797 0.969574 5.89648 1.19809 6.1543L4.05746 9.55859C4.31528 9.85742 4.61411 9.99219 5.00082 9.99219Z" fill="white"/>
</svg>
